<?xml version="1.0" encoding="UTF-8" standalone="no"?>
<!-- Created with Inkscape (http://www.inkscape.org/) -->

<svg
   version="1.1"
   id="svg1"
   width="226.88"
   height="226.88"
   viewBox="0 0 226.88 226.88"
   xmlns="http://www.w3.org/2000/svg"
   xmlns:svg="http://www.w3.org/2000/svg">
  <defs
     id="defs1" />
  <g
     id="g1">
    <path
       style="fill:#000000;stroke:#000000;stroke-width:10;stroke-dasharray:none;stroke-opacity:1"
       d="m 103.83828,215.19027 -10.936065,0.0991 -1.406065,-0.11562 -1.406066,-0.11562 -3.905737,-0.34243 -3.905738,-0.34245 -5.311802,-0.7745 -5.311804,-0.7745 -4.374426,-0.95164 -4.374426,-0.95165 -2.812131,-0.72156 -2.812131,-0.72155 -3.749508,-1.13802 -3.749508,-1.13801 -2.343442,-0.81062 -2.343443,-0.8106 -3.749508,-1.48554 -3.749507,-1.48553 -4.218197,-1.93 -4.218196,-1.93001 -3.550719,-1.91943 -3.550718,-1.91943 -1.009313,-1.25904 -1.009313,-1.25903 -1.746681,-2.85363 -1.746681,-2.85363 -2.075946,-4.14278 -2.075948,-4.14276 -1.506089,-3.78344 -1.5060902,-3.78343 -0.9504486,-3.12459 -0.9504486,-3.12459 -0.6289064,-2.49967 -0.6289062,-2.49967 -0.8127314,-4.37443 -0.8127315,-4.37443 -0.6182199,-3.99948 c 0,0 -1.7326953,-13.7942 -0.6147539,-13.98498 0.3111806,-0.0531 1.1314373,11.11037 1.1314373,11.11037 l 0.1349033,0.93737 0.3280428,2.96836 0.3280427,2.96836 0.6211863,3.59328 0.6211862,3.59328 0.937084,3.74951 0.9370838,3.74951 1.4131455,4.17218 1.4131458,4.17219 1.706203,3.91204 1.706204,3.91203 1.13457,2.0707 1.134571,2.07069 2.061952,3.43221 2.061952,3.4322 1.098953,1.1038 1.098954,1.1038 6.400062,3.18425 6.400064,3.18426 4.686884,1.85165 4.686885,1.85163 3.28082,1.10901 3.280819,1.10902 3.12459,0.94057 3.12459,0.94058 3.749508,0.93244 3.749508,0.93246 3.905737,0.78037 3.905739,0.78039 4.374426,0.6345 4.374425,0.63449 3.749508,0.40431 3.749508,0.40429 h 12.029675 12.02967 l 3.90573,-0.41281 3.90574,-0.41281 5.15557,-0.77902 5.15558,-0.77903 4.88499,-1.07782 4.88498,-1.07782 4.4929,-1.23191 4.49289,-1.23191 4.21408,-1.45129 4.21409,-1.4513 3.90574,-1.57402 3.90573,-1.57401 1.79122,-0.89579 1.79123,-0.89579 1.75455,-2.10733 1.75454,-2.10734 3.12609,-4.68689 3.12609,-4.68688 2.5641,-5.16066 2.5641,-5.16065 1.64128,-4.68181 1.6413,-4.6818 0.90707,-3.59327 0.90706,-3.59328 0.49752,-2.81213 0.49752,-2.81214 0.44465,-4.06196 0.44467,-4.06197 0.006,-4.71073 0.006,-4.71073 -0.33284,-3.4132 -0.33283,-3.41321 -0.62115,-3.59328 -0.62115,-3.59327 -0.92377,-3.665 -0.92376,-3.66501 -1.35752,-3.84923 -1.35752,-3.84924 -1.36901,-3.10937 -1.36902,-3.10936 -0.0206,-0.31246 -0.0206,-0.31246 1.31183,-1.862171 1.31184,-1.862169 5.10965,-0.03527 5.10964,-0.03527 2.03098,-0.513431 2.03099,-0.51343 1.82094,-0.627137 1.82094,-0.627135 2.81378,-1.483587 2.81378,-1.483586 2.53517,-2.103171 2.53516,-2.103172 1.52797,-1.790592 1.52797,-1.790591 1.2305,-1.811996 1.23051,-1.811996 1.20028,-2.427237 1.20028,-2.427238 0.65895,-2.030985 0.65894,-2.030983 0.48691,-2.030984 0.4869,-2.030983 0.18267,-4.061967 0.18266,-4.061967 -0.50147,-2.866495 -0.50148,-2.866496 -0.36474,-0.800516 -0.36474,-0.800516 -0.81111,-0.551185 -0.8111,-0.551185 -15.14509,-0.03944 -15.14508,-0.03944 -0.23146,-0.429249 -0.23147,-0.429249 -0.99304,-2.343442 -0.99303,-2.343443 -0.94992,-1.718524 -0.94991,-1.718525 -1.80973,-2.655901 -1.80972,-2.655901 -1.97284,-2.269933 -1.97284,-2.269932 -2.33236,-2.06369 -2.33236,-2.063689 -2.18721,-1.548518 -2.18722,-1.548519 -2.572,-1.404684 -2.57201,-1.404684 -2.60776,-1.051537 -2.60777,-1.051538 -2.78793,-0.767063 -2.78794,-0.767065 -2.18721,-0.424068 -2.18721,-0.424067 -5.93672,0.01249 -5.93672,0.01249 -2.81213,0.564995 -2.81214,0.564994 -3.59974,1.179528 -3.59974,1.179528 -2.82041,1.416496 -2.82041,1.416496 -2.79739,1.872276 -2.79739,1.872276 -2.6559,2.333981 -2.6559,2.333981 -2.07139,2.462186 -2.07139,2.462187 -1.78315,2.655901 -1.78315,2.655901 -1.524499,3.12459 -1.524496,3.12459 -1.10955,3.335527 -1.109549,3.335528 -0.31569,1.507587 -0.315689,1.507587 -0.454319,2.968361 -0.454318,2.96836 v 4.218196 4.218197 l 0.454318,2.968361 0.454319,2.968361 0.296822,1.406065 0.296823,1.406066 0.998352,3.124589 0.998354,3.12459 1.352008,2.899482 1.352014,2.899482 1.18137,1.943633 1.18137,1.943632 0.0578,0.390574 0.0578,0.390574 h -4.742687 -4.742684 l -4.994012,0.317729 -4.994011,0.317731 -4.125142,0.463417 -4.12514,0.463418 H 74.532478 73.787341 L 72.095979,96.549323 70.404617,93.975064 68.543895,91.628094 66.683174,89.281122 63.857011,86.350214 61.030847,83.419305 57.815616,80.768863 54.600384,78.11842 50.700459,75.514017 46.800533,72.909614 42.979626,71.054626 39.158718,69.199638 36.309502,68.2262 33.460286,67.252762 h -1.144672 -1.144672 l -1.015044,0.424113 -1.015043,0.424112 -1.979038,2.153674 -1.979038,2.153675 -2.583625,3.43705 -2.583625,3.437049 -1.862768,2.96836 -1.862767,2.96836 -1.58551,2.968361 -1.585509,2.96836 -1.385859,3.28082 -1.385859,3.280819 -1.1429018,3.361435 -1.1429013,3.36143 -0.7599939,3.04398 -0.759154,3.04397 -0.6636101,3.56536 -0.6636101,3.56535 -0.4567782,3.79953 c 0,0 -0.7785183,14.24244 -1.5225143,14.22085 -0.9817789,-0.0285 0.7897411,-13.12141 0.7897411,-13.12141 l 0.2985293,-2.65591 0.4706394,-3.12459 0.4706393,-3.12459 0.4806157,-2.34344 0.4806157,-2.34344 0.7810402,-2.96836 0.7810402,-2.96836 0.9717249,-2.81213 0.9717249,-2.812135 1.525438,-3.593278 1.525439,-3.593279 1.894941,-3.437049 1.894941,-3.437049 2.291199,-3.437048 2.291198,-3.437049 2.372257,-2.96407 2.372257,-2.96407 1.472213,-1.536174 1.472214,-1.536174 1.007562,-0.420986 1.007561,-0.420986 h 1.357488 1.357486 l 2.636401,0.891466 2.636401,0.891467 2.224167,0.976521 2.224168,0.976521 3.27074,1.822491 3.270741,1.822491 3.097031,2.15927 3.097031,2.159269 2.031666,1.691701 2.031667,1.691701 3.067322,3.004043 3.067322,3.004042 2.271331,2.812131 2.271331,2.812131 1.251948,1.874754 1.251947,1.874754 0.496663,0.815946 0.496663,0.815946 1.661589,-0.26607 1.661589,-0.266071 5.468032,-0.471142 5.468032,-0.471141 6.797064,-0.07873 6.797066,-0.07873 -0.1233,-0.327498 -0.1233,-0.327498 -1.60171,-2.793413 -1.601719,-2.793412 -1.278667,-3.270408 -1.278666,-3.270409 -0.764788,-2.982451 -0.764788,-2.982451 -0.44471,-3.280819 -0.444709,-3.28082 V 67.8777 63.971963 l 0.444709,-3.28082 0.44471,-3.280819 0.77385,-3.018175 0.77385,-3.018174 1.32961,-3.338155 1.329609,-3.338155 1.585819,-2.766889 1.58581,-2.766888 1.87475,-2.584471 1.87475,-2.584471 3.28806,-3.290343 3.28804,-3.290343 2.96114,-2.100882 2.96112,-2.100882 3.74951,-1.877837 3.74951,-1.877837 2.81213,-0.920185 2.81213,-0.920186 2.40737,-0.490802 2.40736,-0.490802 3.2169,-0.353598 3.21689,-0.353597 3.90574,0.190519 3.90574,0.190518 2.6468,0.472859 2.6468,0.47286 2.665,0.767865 2.665,0.767865 2.34345,0.965641 2.34344,0.965641 2.84245,1.572451 2.84244,1.57245 2.78182,2.078099 2.78181,2.0781 2.96836,3.000602 2.96836,3.000602 2.1018,2.944448 2.10179,2.944448 1.17903,2.187213 1.17902,2.187213 1.1582,2.655902 1.1582,2.655901 15.2459,0.15623 15.2459,0.156229 0.6998,0.399836 0.6998,0.399837 0.45838,0.886417 0.45838,0.886417 0.32364,1.994567 0.32364,1.994565 0.002,4.886713 0.002,4.886712 -0.47243,2.490477 -0.47244,2.490478 -0.73336,2.152809 -0.73335,2.15281 -1.2651,2.499672 -1.26509,2.499672 -1.64382,2.328851 -1.64384,2.32885 -2.07094,2.070942 -2.07094,2.070942 -2.32885,1.643623 -2.32886,1.643623 -2.03098,1.021201 -2.03099,1.021201 -1.89685,0.648928 -1.89686,0.64893 -2.1651,0.532171 -2.16512,0.532172 -4.9038,0.04019 -4.90381,0.04019 -1.23308,1.71278 -1.23308,1.712776 0.59879,1.17505 0.59879,1.17505 1.52241,3.8243 1.52243,3.82429 0.95749,3.12459 0.9575,3.12459 0.6701,2.81213 0.67011,2.81213 0.59107,3.59328 0.59108,3.59328 0.37571,5.54614 0.37571,5.54615 -0.37168,5.54615 -0.37167,5.54615 -0.63686,3.7495 -0.63686,3.74951 -0.62312,2.6559 -0.62311,2.6559 -0.96059,3.12459 -0.96059,3.12459 -1.55602,3.90574 -1.556,3.90574 -2.08571,4.06164 -2.0857,4.06164 -3.0107,4.53099 -3.01071,4.53097 -1.8324,2.18722 -1.83242,2.18721 -2.33116,1.1545 -2.33117,1.15448 -4.07424,1.60654 -4.07425,1.60654 -4.99934,1.65559 -4.99935,1.6556 -4.99934,1.26307 -4.99934,1.26308 -3.28082,0.64363 -3.28082,0.64365 -3.95971,0.63595 -3.95971,0.63596 -4.47668,0.48426 -4.47669,0.48425 z m 52.11518,-153.077191 -2.12174,0.137866 -1.40607,-0.406937 -1.40606,-0.406938 -1.24984,-0.596897 -1.24984,-0.596899 -1.40606,-1.439253 -1.40607,-1.439254 -0.73425,-1.480028 -0.73426,-1.480028 -0.34517,-2.015086 -0.34515,-2.015085 0.36858,-1.757267 0.36859,-1.757269 0.69604,-1.442712 0.69603,-1.442713 1.48349,-1.44881 1.48349,-1.44881 1.38174,-0.668889 1.38175,-0.668889 1.91456,-0.337245 1.91456,-0.337243 1.82708,0.321833 1.82708,0.321833 1.46677,0.689466 1.46678,0.689465 1.40739,1.367823 1.40738,1.367822 0.90185,1.90696 0.90185,1.90696 0.2084,1.946017 0.2084,1.946016 -0.49965,1.95034 -0.49965,1.950338 -1.1338,1.708138 -1.13381,1.708138 -0.98851,0.753977 -0.98851,0.753977 -1.77082,0.810708 -1.77082,0.810708 z m -0.8267,-0.51655 1.29504,0.03199 1.98578,-0.627305 1.98578,-0.627306 1.17457,-0.895614 1.17458,-0.895614 0.97642,-1.211096 0.97641,-1.211097 0.57402,-1.274533 0.57401,-1.274534 0.20928,-1.780585 0.20927,-1.780585 -0.54471,-2.012334 -0.54472,-2.012333 -0.99138,-1.3944 -0.99137,-1.394399 -1.24197,-1.000943 -1.24196,-1.000943 -1.40606,-0.651303 -1.40607,-0.651303 -2.6559,0.0064 -2.6559,0.0064 -1.71852,0.791833 -1.71853,0.791835 -1.42949,1.392389 -1.42949,1.39239 -0.91395,1.861446 -0.91395,1.861446 0.002,2.655901 0.002,2.655902 0.87561,1.786509 0.87561,1.786509 1.31486,1.352901 1.31488,1.352899 1.52069,0.736157 1.5207,0.736155 0.97403,0.232533 0.97403,0.232533 z"
       id="path1" />
  </g>
</svg>
